<svg xmlns="http://www.w3.org/2000/svg" viewBox="0 0 128 128">
  <rect width="128" height="128" rx="24" fill="#2563eb"/>
  <path d="M28 18h52l24 24v56a8 8 0 0 1-8 8H36a8 8 0 0 1-8-8V26a8 8 0 0 1 8-8z" fill="#fff" opacity="0.96"/>
  <path d="M80 18v24h24" fill="none" stroke="#cbd5e1" stroke-width="2"/>
  <rect x="46" y="72" width="8" height="20" rx="2" fill="#93c5fd"/>
  <rect x="58" y="60" width="8" height="32" rx="2" fill="#60a5fa"/>
  <rect x="70" y="48" width="8" height="44" rx="2" fill="#2563eb"/>
  <polyline points="50,74 58,60 66,64 74,48" fill="none" stroke="#16a34a" stroke-width="2.5" stroke-linecap="round" stroke-linejoin="round"/>
  <circle cx="74" cy="48" r="2.5" fill="#16a34a"/>
  <text x="76" y="100" font-family="'Segoe UI',Arial,sans-serif" font-size="11" font-weight="700" fill="#1e293b" letter-spacing="1">OFX</text>
</svg>
